<?xml version="1.0" encoding="utf-8"?>
<!-- Uploaded to: SVG Repo, www.svgrepo.com, Generator: SVG Repo Mixer Tools -->
<svg width="800px" height="800px" viewBox="0 0 1024 1024" class="icon"  version="1.1" xmlns="http://www.w3.org/2000/svg"><path d="M823.109604 221.538068H575.492153c-10.157966 0-19.4272 3.062441-27.540468 7.899275v542.603932h-27.512822V229.436319c-8.113267-4.836834-17.382501-7.899275-27.540468-7.899275H245.280945c-30.412466 0-55.025645 24.613179-55.025646 55.025645v467.883853c0 30.412466 24.613179 55.025645 55.025646 55.025645h247.61745c0.269282 0 0.539588-0.05529 0.805798-0.05529 14.618011 0.3215 26.439791 12.144304 26.762315 26.762315v28.319644h27.512822v-15.262035h0.267234v-12.38594c0-14.856576 11.87707-26.948662 26.654807-27.43296 0.215016 0 0.401363 0.05529 0.591806 0.05529h247.617451c30.412466 0 55.025645-24.613179 55.025645-55.025645V276.563713c0-30.412466-24.613179-55.025645-55.026669-55.025645z" fill="#98C4D8" /><path d="M795.596781 194.024221H547.97933c-10.157966 0-19.4272 3.062441-27.540467 7.899276v542.603932h-27.512823V201.923497c-8.113267-4.836834-17.382501-7.899275-27.540467-7.899276H217.768122c-30.412466 0-55.025645 24.613179-55.025645 55.025645v467.883853c0 30.412466 24.613179 55.025645 55.025645 55.025646h247.617451c0.269282 0 0.539588-0.05529 0.805798-0.05529 14.618011 0.3215 26.439791 12.144304 26.762314 26.762314v28.319645h27.512823v-15.261011h0.267234v-12.385941c0-14.856576 11.87707-26.948662 26.654806-27.432959 0.215016 0 0.401363 0.05529 0.591806 0.055289h247.617451c30.412466 0 55.025645-24.613179 55.025645-55.025645v-467.884877c0-30.41349-24.613179-55.026669-55.026669-55.026669z" fill="#EFD9A0" /><path d="M266.429105 280.220212a24.752428 52.599037 55.515 1 0 86.712084-59.562146 24.752428 52.599037 55.515 1 0-86.712084 59.562146Z" fill="#FEFEFE" /><path d="M213.275796 366.780348a16.50196 28.877662 55.515 1 0 47.606237-32.700513 16.50196 28.877662 55.515 1 0-47.606237 32.700513Z" fill="#FEFEFE" /></svg>